<?xml version="1.0" encoding="UTF-8" standalone="no"?>
<svg
   xmlns:dc="http://purl.org/dc/elements/1.1/"
   xmlns:cc="http://creativecommons.org/ns#"
   xmlns:rdf="http://www.w3.org/1999/02/22-rdf-syntax-ns#"
   xmlns:svg="http://www.w3.org/2000/svg"
   xmlns="http://www.w3.org/2000/svg"
   xmlns:xlink="http://www.w3.org/1999/xlink"
   xmlns:sodipodi="http://sodipodi.sourceforge.net/DTD/sodipodi-0.dtd"
   xmlns:inkscape="http://www.inkscape.org/namespaces/inkscape"
   version="1.1"
   id="Layer_1"
   x="0px"
   y="0px"
   viewBox="0 0 1000 1000"
   style="enable-background:new 0 0 1000 1000;"
   xml:space="preserve"
   sodipodi:docname="moodi_logo.svg"
   inkscape:export-filename="C:\Users\brae\source\repos\moodi\moodi\moodi.Android\Resources\drawable\moodi_logo.png"
   inkscape:export-xdpi="98.304001"
   inkscape:export-ydpi="98.304001"
   inkscape:version="1.0.2-2 (e86c870879, 2021-01-15)"><metadata
   id="metadata33"><rdf:RDF><cc:Work
       rdf:about=""><dc:format>image/svg+xml</dc:format><dc:type
         rdf:resource="http://purl.org/dc/dcmitype/StillImage" /><dc:title></dc:title></cc:Work></rdf:RDF></metadata><defs
   id="defs31"><linearGradient
     inkscape:collect="always"
     id="linearGradient1062"><stop
       style="stop-color:#ffffff;stop-opacity:1"
       offset="0"
       id="stop1058" /><stop
       style="stop-color:#d3d3d3;stop-opacity:1"
       offset="1"
       id="stop1060" /></linearGradient><linearGradient
     inkscape:collect="always"
     id="linearGradient988"><stop
       style="stop-color:#602080;stop-opacity:1"
       offset="0"
       id="stop984" /><stop
       style="stop-color:#b030b0;stop-opacity:1"
       offset="1"
       id="stop986" /></linearGradient><linearGradient
     inkscape:collect="always"
     id="linearGradient920"><stop
       style="stop-color:#202060;stop-opacity:1"
       offset="0"
       id="stop916" /><stop
       style="stop-color:#602080;stop-opacity:1"
       offset="1"
       id="stop918" /></linearGradient><linearGradient
     inkscape:collect="always"
     xlink:href="#linearGradient988"
     id="linearGradient922"
     x1="30.851683"
     y1="500"
     x2="971.88269"
     y2="500"
     gradientUnits="userSpaceOnUse"
     gradientTransform="matrix(1.0595855,0,0,1.0595854,-29.792719,-29.792717)" /><linearGradient
     inkscape:collect="always"
     xlink:href="#linearGradient920"
     id="linearGradient974"
     x1="82.279999"
     y1="480.01999"
     x2="902.69"
     y2="480.01999"
     gradientUnits="userSpaceOnUse" /><linearGradient
     inkscape:collect="always"
     xlink:href="#linearGradient988"
     id="linearGradient982"
     x1="56.070797"
     y1="500.24405"
     x2="931.55188"
     y2="493.39825"
     gradientUnits="userSpaceOnUse" /><linearGradient
     inkscape:collect="always"
     xlink:href="#linearGradient988"
     id="linearGradient1030"
     gradientUnits="userSpaceOnUse"
     x1="82.279999"
     y1="480.01999"
     x2="902.69"
     y2="480.01999" /><linearGradient
     inkscape:collect="always"
     xlink:href="#linearGradient988"
     id="linearGradient1032"
     gradientUnits="userSpaceOnUse"
     x1="82.279999"
     y1="480.01999"
     x2="902.69"
     y2="480.01999" /><linearGradient
     inkscape:collect="always"
     xlink:href="#linearGradient988"
     id="linearGradient1034"
     gradientUnits="userSpaceOnUse"
     x1="82.279999"
     y1="480.01999"
     x2="902.69"
     y2="480.01999" /><linearGradient
     inkscape:collect="always"
     xlink:href="#linearGradient988"
     id="linearGradient1036"
     gradientUnits="userSpaceOnUse"
     x1="82.279999"
     y1="480.01999"
     x2="902.69"
     y2="480.01999" /><linearGradient
     inkscape:collect="always"
     xlink:href="#linearGradient988"
     id="linearGradient1038"
     gradientUnits="userSpaceOnUse"
     x1="82.279999"
     y1="480.01999"
     x2="902.69"
     y2="480.01999" /><linearGradient
     inkscape:collect="always"
     xlink:href="#linearGradient988"
     id="linearGradient1040"
     gradientUnits="userSpaceOnUse"
     x1="82.279999"
     y1="480.01999"
     x2="902.69"
     y2="480.01999" /><linearGradient
     inkscape:collect="always"
     xlink:href="#linearGradient988"
     id="linearGradient1042"
     gradientUnits="userSpaceOnUse"
     x1="82.279999"
     y1="480.01999"
     x2="902.69"
     y2="480.01999" /><linearGradient
     inkscape:collect="always"
     xlink:href="#linearGradient988"
     id="linearGradient1044"
     gradientUnits="userSpaceOnUse"
     x1="82.279999"
     y1="480.01999"
     x2="902.69"
     y2="480.01999" /><linearGradient
     inkscape:collect="always"
     xlink:href="#linearGradient988"
     id="linearGradient1046"
     gradientUnits="userSpaceOnUse"
     x1="82.279999"
     y1="480.01999"
     x2="902.69"
     y2="480.01999" /><linearGradient
     inkscape:collect="always"
     xlink:href="#linearGradient988"
     id="linearGradient1048"
     gradientUnits="userSpaceOnUse"
     x1="82.279999"
     y1="480.01999"
     x2="902.69"
     y2="480.01999" /><linearGradient
     inkscape:collect="always"
     xlink:href="#linearGradient1062"
     id="linearGradient1064"
     x1="0"
     y1="500"
     x2="1000"
     y2="500"
     gradientUnits="userSpaceOnUse" /></defs><sodipodi:namedview
   pagecolor="#ffffff"
   bordercolor="#666666"
   borderopacity="1"
   objecttolerance="10"
   gridtolerance="10"
   guidetolerance="10"
   inkscape:pageopacity="0"
   inkscape:pageshadow="2"
   inkscape:window-width="1544"
   inkscape:window-height="874"
   id="namedview29"
   showgrid="false"
   inkscape:zoom="0.6903035"
   inkscape:cx="437.51423"
   inkscape:cy="501.99859"
   inkscape:window-x="189"
   inkscape:window-y="495"
   inkscape:window-maximized="0"
   inkscape:current-layer="g26"
   inkscape:pagecheckerboard="true" />
<style
   type="text/css"
   id="style2">
	.st0{fill:#602080;}
	.st1{fill:none;stroke:#602080;stroke-width:30.4853;stroke-miterlimit:10;}
	.st2{fill:none;stroke:#602080;stroke-width:16.0604;stroke-linecap:round;stroke-miterlimit:10;}
</style>
<g
   id="g26">
	
	
	<circle
   style="display:none;fill:url(#linearGradient1064);fill-opacity:1;stroke-width:1.54107;paint-order:normal"
   id="path1056"
   cx="500"
   cy="500"
   r="500" /><circle
   class="st1"
   cx="500"
   cy="500"
   id="circle18"
   style="display:inline;mix-blend-mode:normal;stroke:url(#linearGradient922)"
   r="483.84912" />
	<g
   id="g958"
   style="display:inline;fill:url(#linearGradient982);fill-opacity:1"
   transform="matrix(0.99950025,0,0,0.97823213,-2.2388806,17.429013)"><g
     id="g14"
     style="fill:url(#linearGradient1040);fill-opacity:1">
		<path
   class="st0"
   d="m 97.02,592.62 c -4.24,0 -7.76,-1.4 -10.55,-4.19 -2.8,-2.79 -4.19,-6.31 -4.19,-10.55 V 449.23 c 0,-4.43 1.39,-7.99 4.19,-10.7 2.79,-2.7 6.31,-4.05 10.55,-4.05 4.43,0 7.99,1.35 10.7,4.05 2.7,2.7 4.05,6.26 4.05,10.7 v 128.64 c 0,4.24 -1.35,7.76 -4.05,10.55 -2.71,2.8 -6.27,4.2 -10.7,4.2 z m 96.55,0 c -4.24,0 -7.76,-1.4 -10.55,-4.19 -2.8,-2.79 -4.19,-6.31 -4.19,-10.55 V 495.2 c 0,-12.14 -2.99,-21.15 -8.96,-27.03 -5.98,-5.88 -13.78,-8.82 -23.42,-8.82 -10.02,0 -18.31,3.47 -24.86,10.41 -6.55,6.94 -9.83,15.8 -9.83,26.6 H 93.55 c 0,-12.53 2.5,-23.56 7.52,-33.1 5.01,-9.54 11.95,-17.01 20.81,-22.4 8.86,-5.39 18.98,-8.09 30.35,-8.09 10.99,0 20.72,2.41 29.2,7.23 8.48,4.82 15.08,11.9 19.8,21.25 4.72,9.35 7.08,20.67 7.08,33.97 v 82.68 c 0,4.24 -1.35,7.76 -4.05,10.55 -2.69,2.77 -6.26,4.17 -10.69,4.17 z m 96.27,0 c -4.24,0 -7.76,-1.4 -10.55,-4.19 -2.8,-2.79 -4.19,-6.31 -4.19,-10.55 V 495.2 c 0,-12.14 -2.99,-21.15 -8.96,-27.03 -5.98,-5.88 -13.78,-8.82 -23.42,-8.82 -10.02,0 -18.26,3.47 -24.72,10.41 -6.46,6.94 -9.68,15.8 -9.68,26.6 h -23.99 c 0,-12.53 2.7,-23.56 8.09,-33.1 5.39,-9.54 12.96,-17.01 22.69,-22.4 9.73,-5.39 20.86,-8.09 33.39,-8.09 10.99,0 20.71,2.41 29.2,7.23 8.48,4.82 15.08,11.9 19.8,21.25 4.72,9.35 7.08,20.67 7.08,33.97 v 82.68 c 0,4.24 -1.35,7.76 -4.05,10.55 -2.7,2.77 -6.26,4.17 -10.69,4.17 z"
   id="path4"
   style="fill:url(#linearGradient1030);fill-opacity:1" />
		<path
   class="st0"
   d="m 404.89,593.49 c -15.61,0 -29.39,-3.42 -41.34,-10.26 -11.95,-6.84 -21.35,-16.28 -28.19,-28.33 -6.84,-12.04 -10.26,-25.87 -10.26,-41.48 0,-15.8 3.42,-29.73 10.26,-41.77 6.84,-12.04 16.23,-21.49 28.19,-28.33 11.95,-6.84 25.73,-10.26 41.34,-10.26 15.42,0 29.1,3.42 41.05,10.26 11.95,6.84 21.34,16.29 28.19,28.33 6.84,12.05 10.26,25.97 10.26,41.77 0,15.61 -3.37,29.44 -10.12,41.48 -6.75,12.05 -16.09,21.49 -28.04,28.33 -11.95,6.84 -25.73,10.26 -41.34,10.26 z m 0,-26.02 c 10.02,0 18.89,-2.31 26.6,-6.94 7.71,-4.63 13.73,-10.99 18.07,-19.08 4.34,-8.09 6.5,-17.44 6.5,-28.04 0,-10.6 -2.17,-19.99 -6.5,-28.19 -4.34,-8.19 -10.36,-14.6 -18.07,-19.22 -7.71,-4.63 -16.58,-6.94 -26.6,-6.94 -10.02,0 -18.89,2.31 -26.6,6.94 -7.71,4.63 -13.78,11.04 -18.21,19.22 -4.44,8.19 -6.65,17.59 -6.65,28.19 0,10.6 2.21,19.95 6.65,28.04 4.43,8.09 10.5,14.45 18.21,19.08 7.71,4.63 16.58,6.94 26.6,6.94 z"
   id="path6"
   style="fill:url(#linearGradient1032);fill-opacity:1" />
		<path
   class="st0"
   d="m 579.79,593.49 c -15.61,0 -29.39,-3.42 -41.34,-10.26 C 526.5,576.39 517.1,566.95 510.26,554.9 503.42,542.86 500,529.03 500,513.42 c 0,-15.8 3.42,-29.73 10.26,-41.77 6.84,-12.04 16.23,-21.49 28.19,-28.33 11.95,-6.84 25.73,-10.26 41.34,-10.26 15.42,0 29.1,3.42 41.05,10.26 11.95,6.84 21.34,16.29 28.19,28.33 6.84,12.05 10.26,25.97 10.26,41.77 0,15.61 -3.37,29.44 -10.12,41.48 -6.75,12.05 -16.09,21.49 -28.04,28.33 -11.96,6.84 -25.73,10.26 -41.34,10.26 z m 0,-26.02 c 10.02,0 18.89,-2.31 26.6,-6.94 7.71,-4.63 13.73,-10.99 18.07,-19.08 4.34,-8.09 6.51,-17.44 6.51,-28.04 0,-10.6 -2.17,-19.99 -6.51,-28.19 -4.34,-8.19 -10.36,-14.6 -18.07,-19.22 -7.71,-4.63 -16.58,-6.94 -26.6,-6.94 -10.02,0 -18.89,2.31 -26.6,6.94 -7.71,4.63 -13.78,11.04 -18.21,19.22 -4.44,8.19 -6.65,17.59 -6.65,28.19 0,10.6 2.21,19.95 6.65,28.04 4.43,8.09 10.5,14.45 18.21,19.08 7.71,4.63 16.57,6.94 26.6,6.94 z"
   id="path8"
   style="fill:url(#linearGradient1034);fill-opacity:1" />
		<path
   class="st0"
   d="m 754.68,593.49 c -15.03,0 -28.57,-3.51 -40.62,-10.55 -12.05,-7.03 -21.59,-16.62 -28.62,-28.76 -7.04,-12.14 -10.55,-25.82 -10.55,-41.05 0,-15.22 3.22,-28.86 9.68,-40.91 6.45,-12.04 15.27,-21.58 26.45,-28.62 11.17,-7.03 23.8,-10.55 37.87,-10.55 11.37,0 21.87,2.36 31.51,7.08 9.63,4.72 17.73,11.13 24.28,19.22 V 381.3 c 0,-4.43 1.39,-7.99 4.19,-10.7 2.79,-2.7 6.31,-4.05 10.55,-4.05 4.43,0 7.99,1.35 10.7,4.05 2.7,2.7 4.05,6.26 4.05,10.7 v 131.82 c 0,15.23 -3.52,28.91 -10.55,41.05 -7.04,12.14 -16.53,21.73 -28.47,28.76 -11.95,7.04 -25.44,10.56 -40.47,10.56 z m 0,-26.02 c 9.83,0 18.6,-2.36 26.31,-7.08 7.71,-4.72 13.78,-11.22 18.21,-19.51 4.43,-8.28 6.65,-17.53 6.65,-27.75 0,-10.41 -2.22,-19.66 -6.65,-27.75 -4.44,-8.09 -10.51,-14.5 -18.21,-19.22 -7.71,-4.72 -16.48,-7.08 -26.31,-7.08 -9.64,0 -18.36,2.36 -26.16,7.08 -7.8,4.72 -13.98,11.13 -18.5,19.22 -4.53,8.09 -6.79,17.35 -6.79,27.75 0,10.22 2.26,19.47 6.79,27.75 4.52,8.29 10.7,14.79 18.5,19.51 7.81,4.72 16.52,7.08 26.16,7.08 z"
   id="path10"
   style="fill:url(#linearGradient1036);fill-opacity:1" />
		<path
   class="st0"
   d="m 883.61,408.47 c -5.2,0 -9.68,-1.88 -13.44,-5.64 -3.76,-3.76 -5.64,-8.24 -5.64,-13.44 0,-5.2 1.88,-9.68 5.64,-13.44 3.76,-3.76 8.24,-5.64 13.44,-5.64 5.2,0 9.68,1.88 13.44,5.64 3.76,3.76 5.64,8.24 5.64,13.44 0,5.2 -1.88,9.68 -5.64,13.44 -3.75,3.76 -8.23,5.64 -13.44,5.64 z m 0,183.86 c -4.24,0 -7.76,-1.4 -10.55,-4.19 -2.8,-2.79 -4.19,-6.31 -4.19,-10.55 V 448.94 c 0,-4.43 1.4,-8 4.19,-10.7 2.79,-2.7 6.31,-4.05 10.55,-4.05 4.43,0 8,1.35 10.7,4.05 2.7,2.7 4.05,6.26 4.05,10.7 v 128.64 c 0,4.24 -1.35,7.76 -4.05,10.55 -2.7,2.8 -6.27,4.2 -10.7,4.2 z"
   id="path12"
   style="fill:url(#linearGradient1038);fill-opacity:1" />
	</g><path
     class="st0"
     d="m 579.79,593.49 c -15.61,0 -29.39,-3.42 -41.34,-10.26 C 526.5,576.39 517.1,566.95 510.26,554.9 503.42,542.86 500,529.03 500,513.42 c 0,-15.8 3.42,-29.73 10.26,-41.77 6.84,-12.04 16.23,-21.49 28.19,-28.33 11.95,-6.84 25.73,-10.26 41.34,-10.26 15.42,0 29.1,3.42 41.05,10.26 11.95,6.84 21.34,16.29 28.19,28.33 6.84,12.05 10.26,25.97 10.26,41.77 0,15.61 -3.37,29.44 -10.12,41.48 -6.75,12.05 -16.09,21.49 -28.04,28.33 -11.96,6.84 -25.73,10.26 -41.34,10.26 z m 0,-26.02 c 10.02,0 18.89,-2.31 26.6,-6.94 7.71,-4.63 13.73,-10.99 18.07,-19.08 4.34,-8.09 6.51,-17.44 6.51,-28.04 0,-10.6 -2.17,-19.99 -6.51,-28.19 -4.34,-8.19 -10.36,-14.6 -18.07,-19.22 -7.71,-4.63 -16.58,-6.94 -26.6,-6.94 -10.02,0 -18.89,2.31 -26.6,6.94 -7.71,4.63 -13.78,11.04 -18.21,19.22 -4.44,8.19 -6.65,17.59 -6.65,28.19 0,10.6 2.21,19.95 6.65,28.04 4.43,8.09 10.5,14.45 18.21,19.08 7.71,4.63 16.57,6.94 26.6,6.94 z"
     id="path16"
     style="fill:url(#linearGradient1042);fill-opacity:1" /><g
     id="g24"
     style="fill:url(#linearGradient1048);fill-opacity:1">
		<line
   class="st2"
   x1="386.89999"
   y1="490.54001"
   x2="386.89999"
   y2="509.45999"
   id="line20"
   style="fill:url(#linearGradient1044);fill-opacity:1" />
		<line
   class="st2"
   x1="422.59"
   y1="490.54001"
   x2="422.59"
   y2="509.45999"
   id="line22"
   style="fill:url(#linearGradient1046);fill-opacity:1;paint-order:normal" />
	</g></g>
</g>
</svg>
