<?xml version="1.0" encoding="UTF-8" standalone="no"?>
<svg
   xmlns:dc="http://purl.org/dc/elements/1.1/"
   xmlns:cc="http://creativecommons.org/ns#"
   xmlns:rdf="http://www.w3.org/1999/02/22-rdf-syntax-ns#"
   xmlns:svg="http://www.w3.org/2000/svg"
   xmlns="http://www.w3.org/2000/svg"
   xmlns:sodipodi="http://sodipodi.sourceforge.net/DTD/sodipodi-0.dtd"
   xmlns:inkscape="http://www.inkscape.org/namespaces/inkscape"
   viewBox="0 0 512 512"
   version="1.1"
   id="svg10"
   sodipodi:docname="smile.svg"
   inkscape:version="1.0.2-2 (e86c870879, 2021-01-15)">
  <metadata
     id="metadata16">
    <rdf:RDF>
      <cc:Work
         rdf:about="">
        <dc:format>image/svg+xml</dc:format>
        <dc:type
           rdf:resource="http://purl.org/dc/dcmitype/StillImage" />
      </cc:Work>
    </rdf:RDF>
  </metadata>
  <defs
     id="defs14" />
  <sodipodi:namedview
     pagecolor="#ffffff"
     bordercolor="#666666"
     borderopacity="1"
     objecttolerance="10"
     gridtolerance="10"
     guidetolerance="10"
     inkscape:pageopacity="0"
     inkscape:pageshadow="2"
     inkscape:window-width="1459"
     inkscape:window-height="663"
     id="namedview12"
     showgrid="false"
     inkscape:zoom="0.34802912"
     inkscape:cx="-148.31643"
     inkscape:cy="180.74009"
     inkscape:window-x="0"
     inkscape:window-y="0"
     inkscape:window-maximized="0"
     inkscape:current-layer="svg10"
     inkscape:document-rotation="0" />
  <path
     fill="var(--ci-primary-color, currentColor)"
     d="M256,16C123.452,16,16,123.452,16,256S123.452,496,256,496,496,388.548,496,256,388.548,16,256,16ZM403.078,403.078a207.253,207.253,0,1,1,44.589-66.125A207.332,207.332,0,0,1,403.078,403.078Z"
     class="ci-primary"
     id="path2"
     style="opacity:1;fill-opacity:1;stroke:#ffffff;stroke-opacity:1;fill:#000000" />
  <rect
     width="40"
     height="40"
     x="152"
     y="200"
     fill="var(--ci-primary-color, currentColor)"
     class="ci-primary"
     id="rect4"
     style="opacity:1;fill-opacity:1;stroke:#ffffff;stroke-opacity:1;fill:#000000" />
  <rect
     width="40"
     height="40"
     x="320"
     y="200"
     fill="var(--ci-primary-color, currentColor)"
     class="ci-primary"
     id="rect6"
     style="opacity:1;fill-opacity:1;stroke:#ffffff;stroke-opacity:1;fill:#000000" />
  <path
     fill="var(--ci-primary-color, currentColor)"
     d="M338.289,307.2A83.6,83.6,0,0,1,260.3,360H251.7a83.6,83.6,0,0,1-77.992-52.8l-1.279-3.2H137.968L144,319.081A116,116,0,0,0,251.7,392H260.3A116,116,0,0,0,368,319.081L374.032,304H339.568Z"
     class="ci-primary"
     id="path8"
     style="opacity:1;fill-opacity:1;stroke:#ffffff;stroke-opacity:1;fill:#000000" />
</svg>
